<mxfile host="app.diagrams.net" agent="Mozilla/5.0 (Windows NT 10.0; Win64; x64) AppleWebKit/537.36 (KHTML, like Gecko) Chrome/127.0.0.0 Safari/537.36" version="24.7.7">
  <diagram name="PÃ¡gina-1" id="Bal9dCU0w3vXgrl_aZGy">
    <mxGraphModel dx="1367" dy="337" grid="1" gridSize="10" guides="1" tooltips="1" connect="1" arrows="1" fold="1" page="0" pageScale="1" pageWidth="827" pageHeight="1169" math="0" shadow="0">
      <root>
        <mxCell id="0" />
        <mxCell id="1" parent="0" />
        <mxCell id="ahCMLixp_YzIX2k5nNPd-49" style="edgeStyle=orthogonalEdgeStyle;rounded=0;orthogonalLoop=1;jettySize=auto;html=1;exitX=0.5;exitY=1;exitDx=0;exitDy=0;entryX=0.5;entryY=0;entryDx=0;entryDy=0;" edge="1" parent="1" source="ahCMLixp_YzIX2k5nNPd-50" target="ahCMLixp_YzIX2k5nNPd-52">
          <mxGeometry relative="1" as="geometry" />
        </mxCell>
        <mxCell id="ahCMLixp_YzIX2k5nNPd-50" value="INICIO" style="rounded=1;whiteSpace=wrap;html=1;arcSize=50;" vertex="1" parent="1">
          <mxGeometry x="-380" y="540" width="120" height="30" as="geometry" />
        </mxCell>
        <mxCell id="ahCMLixp_YzIX2k5nNPd-51" style="edgeStyle=orthogonalEdgeStyle;rounded=0;orthogonalLoop=1;jettySize=auto;html=1;exitX=0.5;exitY=1;exitDx=0;exitDy=0;" edge="1" parent="1" source="ahCMLixp_YzIX2k5nNPd-52">
          <mxGeometry relative="1" as="geometry">
            <mxPoint x="-320" y="740" as="targetPoint" />
          </mxGeometry>
        </mxCell>
        <mxCell id="ahCMLixp_YzIX2k5nNPd-52" value="string[,] matriz;" style="rounded=0;whiteSpace=wrap;html=1;" vertex="1" parent="1">
          <mxGeometry x="-380" y="620" width="120" height="60" as="geometry" />
        </mxCell>
        <mxCell id="ahCMLixp_YzIX2k5nNPd-53" value="matriz = new string[5, 5]&lt;div&gt;{ &quot;-&quot;, &quot;-&quot;, &quot;-&quot;, &quot;-&quot;, &quot;-&quot; },&lt;br&gt;{ &quot;-&quot;, &quot;-&quot;, &quot;-&quot;, &quot;-&quot;, &quot;-&quot; },...&lt;/div&gt;" style="rounded=0;whiteSpace=wrap;html=1;" vertex="1" parent="1">
          <mxGeometry x="-395" y="740" width="150" height="70" as="geometry" />
        </mxCell>
        <mxCell id="ahCMLixp_YzIX2k5nNPd-54" style="edgeStyle=orthogonalEdgeStyle;rounded=0;orthogonalLoop=1;jettySize=auto;html=1;exitX=0.5;exitY=1;exitDx=0;exitDy=0;exitPerimeter=0;entryX=0.5;entryY=0;entryDx=0;entryDy=0;" edge="1" parent="1" source="ahCMLixp_YzIX2k5nNPd-55" target="ahCMLixp_YzIX2k5nNPd-59">
          <mxGeometry relative="1" as="geometry" />
        </mxCell>
        <mxCell id="ahCMLixp_YzIX2k5nNPd-55" value="" style="strokeWidth=2;html=1;shape=mxgraph.flowchart.start_2;whiteSpace=wrap;" vertex="1" parent="1">
          <mxGeometry x="-345" y="850" width="50" height="50" as="geometry" />
        </mxCell>
        <mxCell id="ahCMLixp_YzIX2k5nNPd-56" style="edgeStyle=orthogonalEdgeStyle;rounded=0;orthogonalLoop=1;jettySize=auto;html=1;exitX=0.5;exitY=1;exitDx=0;exitDy=0;entryX=0.5;entryY=0;entryDx=0;entryDy=0;entryPerimeter=0;" edge="1" parent="1" target="ahCMLixp_YzIX2k5nNPd-55">
          <mxGeometry relative="1" as="geometry">
            <mxPoint x="-320" y="810" as="sourcePoint" />
          </mxGeometry>
        </mxCell>
        <mxCell id="ahCMLixp_YzIX2k5nNPd-57" style="edgeStyle=orthogonalEdgeStyle;rounded=0;orthogonalLoop=1;jettySize=auto;html=1;exitX=1;exitY=0.5;exitDx=0;exitDy=0;entryX=0.5;entryY=0;entryDx=0;entryDy=0;" edge="1" parent="1" source="ahCMLixp_YzIX2k5nNPd-59" target="ahCMLixp_YzIX2k5nNPd-71">
          <mxGeometry relative="1" as="geometry" />
        </mxCell>
        <mxCell id="ahCMLixp_YzIX2k5nNPd-58" value="F" style="edgeLabel;html=1;align=center;verticalAlign=middle;resizable=0;points=[];" vertex="1" connectable="0" parent="ahCMLixp_YzIX2k5nNPd-57">
          <mxGeometry x="-0.4295" y="-1" relative="1" as="geometry">
            <mxPoint as="offset" />
          </mxGeometry>
        </mxCell>
        <mxCell id="ahCMLixp_YzIX2k5nNPd-59" value="i&amp;lt;5" style="rhombus;whiteSpace=wrap;html=1;strokeWidth=2;" vertex="1" parent="1">
          <mxGeometry x="20" y="540" width="80" height="80" as="geometry" />
        </mxCell>
        <mxCell id="ahCMLixp_YzIX2k5nNPd-60" style="edgeStyle=orthogonalEdgeStyle;rounded=0;orthogonalLoop=1;jettySize=auto;html=1;exitX=0.5;exitY=1;exitDx=0;exitDy=0;entryX=0.5;entryY=0;entryDx=0;entryDy=0;" edge="1" parent="1" source="ahCMLixp_YzIX2k5nNPd-62" target="ahCMLixp_YzIX2k5nNPd-65">
          <mxGeometry relative="1" as="geometry" />
        </mxCell>
        <mxCell id="ahCMLixp_YzIX2k5nNPd-61" value="V" style="edgeLabel;html=1;align=center;verticalAlign=middle;resizable=0;points=[];" vertex="1" connectable="0" parent="ahCMLixp_YzIX2k5nNPd-60">
          <mxGeometry x="-0.147" y="-1" relative="1" as="geometry">
            <mxPoint x="-9" as="offset" />
          </mxGeometry>
        </mxCell>
        <mxCell id="ahCMLixp_YzIX2k5nNPd-62" value="j&amp;lt;5" style="rhombus;whiteSpace=wrap;html=1;strokeWidth=2;" vertex="1" parent="1">
          <mxGeometry x="20" y="650" width="80" height="80" as="geometry" />
        </mxCell>
        <mxCell id="ahCMLixp_YzIX2k5nNPd-63" style="edgeStyle=orthogonalEdgeStyle;rounded=0;orthogonalLoop=1;jettySize=auto;html=1;exitX=0.5;exitY=1;exitDx=0;exitDy=0;entryX=0.5;entryY=0;entryDx=0;entryDy=0;" edge="1" parent="1" source="ahCMLixp_YzIX2k5nNPd-65">
          <mxGeometry relative="1" as="geometry">
            <mxPoint x="60" y="910" as="targetPoint" />
          </mxGeometry>
        </mxCell>
        <mxCell id="ahCMLixp_YzIX2k5nNPd-64" value="V" style="edgeLabel;html=1;align=center;verticalAlign=middle;resizable=0;points=[];" vertex="1" connectable="0" parent="ahCMLixp_YzIX2k5nNPd-63">
          <mxGeometry x="-0.0298" y="-1" relative="1" as="geometry">
            <mxPoint as="offset" />
          </mxGeometry>
        </mxCell>
        <mxCell id="ahCMLixp_YzIX2k5nNPd-65" value="i+j = 4" style="rhombus;whiteSpace=wrap;html=1;strokeWidth=2;" vertex="1" parent="1">
          <mxGeometry x="-45" y="770" width="85" height="80" as="geometry" />
        </mxCell>
        <mxCell id="ahCMLixp_YzIX2k5nNPd-66" style="edgeStyle=orthogonalEdgeStyle;rounded=0;orthogonalLoop=1;jettySize=auto;html=1;exitX=0.5;exitY=1;exitDx=0;exitDy=0;entryX=0.5;entryY=-0.043;entryDx=0;entryDy=0;entryPerimeter=0;" edge="1" parent="1" source="ahCMLixp_YzIX2k5nNPd-59" target="ahCMLixp_YzIX2k5nNPd-62">
          <mxGeometry relative="1" as="geometry" />
        </mxCell>
        <mxCell id="ahCMLixp_YzIX2k5nNPd-67" value="V" style="edgeLabel;html=1;align=center;verticalAlign=middle;resizable=0;points=[];" vertex="1" connectable="0" parent="ahCMLixp_YzIX2k5nNPd-66">
          <mxGeometry x="-0.2143" y="-1" relative="1" as="geometry">
            <mxPoint x="-9" as="offset" />
          </mxGeometry>
        </mxCell>
        <mxCell id="ahCMLixp_YzIX2k5nNPd-68" style="edgeStyle=orthogonalEdgeStyle;rounded=0;orthogonalLoop=1;jettySize=auto;html=1;exitX=0.5;exitY=0;exitDx=0;exitDy=0;exitPerimeter=0;entryX=0;entryY=0.5;entryDx=0;entryDy=0;" edge="1" parent="1" source="ahCMLixp_YzIX2k5nNPd-69" target="ahCMLixp_YzIX2k5nNPd-59">
          <mxGeometry relative="1" as="geometry" />
        </mxCell>
        <mxCell id="ahCMLixp_YzIX2k5nNPd-69" value="" style="strokeWidth=2;html=1;shape=mxgraph.flowchart.start_2;whiteSpace=wrap;" vertex="1" parent="1">
          <mxGeometry x="-90" y="610" width="50" height="50" as="geometry" />
        </mxCell>
        <mxCell id="ahCMLixp_YzIX2k5nNPd-70" style="edgeStyle=orthogonalEdgeStyle;rounded=0;orthogonalLoop=1;jettySize=auto;html=1;exitX=0.5;exitY=1;exitDx=0;exitDy=0;entryX=0.5;entryY=0;entryDx=0;entryDy=0;" edge="1" parent="1" source="ahCMLixp_YzIX2k5nNPd-71" target="ahCMLixp_YzIX2k5nNPd-80">
          <mxGeometry relative="1" as="geometry" />
        </mxCell>
        <mxCell id="ahCMLixp_YzIX2k5nNPd-71" value="matriz" style="shape=parallelogram;perimeter=parallelogramPerimeter;whiteSpace=wrap;html=1;fixedSize=1;strokeWidth=2;" vertex="1" parent="1">
          <mxGeometry x="200" y="740" width="120" height="60" as="geometry" />
        </mxCell>
        <mxCell id="ahCMLixp_YzIX2k5nNPd-72" value="matriz[i, j] = &quot;*&quot;" style="rounded=0;whiteSpace=wrap;html=1;" vertex="1" parent="1">
          <mxGeometry x="20" y="910" width="130" height="60" as="geometry" />
        </mxCell>
        <mxCell id="ahCMLixp_YzIX2k5nNPd-73" style="edgeStyle=orthogonalEdgeStyle;rounded=0;orthogonalLoop=1;jettySize=auto;html=1;exitX=0;exitY=0.5;exitDx=0;exitDy=0;entryX=0.5;entryY=1;entryDx=0;entryDy=0;entryPerimeter=0;" edge="1" parent="1" source="ahCMLixp_YzIX2k5nNPd-62" target="ahCMLixp_YzIX2k5nNPd-69">
          <mxGeometry relative="1" as="geometry" />
        </mxCell>
        <mxCell id="ahCMLixp_YzIX2k5nNPd-74" value="F" style="edgeLabel;html=1;align=center;verticalAlign=middle;resizable=0;points=[];" vertex="1" connectable="0" parent="ahCMLixp_YzIX2k5nNPd-73">
          <mxGeometry x="-0.3036" relative="1" as="geometry">
            <mxPoint as="offset" />
          </mxGeometry>
        </mxCell>
        <mxCell id="ahCMLixp_YzIX2k5nNPd-75" style="edgeStyle=orthogonalEdgeStyle;rounded=0;orthogonalLoop=1;jettySize=auto;html=1;exitX=0.5;exitY=0;exitDx=0;exitDy=0;exitPerimeter=0;entryX=1;entryY=0.5;entryDx=0;entryDy=0;" edge="1" parent="1" source="ahCMLixp_YzIX2k5nNPd-76" target="ahCMLixp_YzIX2k5nNPd-62">
          <mxGeometry relative="1" as="geometry" />
        </mxCell>
        <mxCell id="ahCMLixp_YzIX2k5nNPd-76" value="" style="strokeWidth=2;html=1;shape=mxgraph.flowchart.start_2;whiteSpace=wrap;" vertex="1" parent="1">
          <mxGeometry x="100" y="785" width="50" height="50" as="geometry" />
        </mxCell>
        <mxCell id="ahCMLixp_YzIX2k5nNPd-77" style="edgeStyle=orthogonalEdgeStyle;rounded=0;orthogonalLoop=1;jettySize=auto;html=1;exitX=1;exitY=0.5;exitDx=0;exitDy=0;entryX=0;entryY=0.5;entryDx=0;entryDy=0;entryPerimeter=0;" edge="1" parent="1" source="ahCMLixp_YzIX2k5nNPd-65" target="ahCMLixp_YzIX2k5nNPd-76">
          <mxGeometry relative="1" as="geometry" />
        </mxCell>
        <mxCell id="ahCMLixp_YzIX2k5nNPd-78" value="F" style="edgeLabel;html=1;align=center;verticalAlign=middle;resizable=0;points=[];" vertex="1" connectable="0" parent="ahCMLixp_YzIX2k5nNPd-77">
          <mxGeometry x="-0.2024" y="-1" relative="1" as="geometry">
            <mxPoint as="offset" />
          </mxGeometry>
        </mxCell>
        <mxCell id="ahCMLixp_YzIX2k5nNPd-79" style="edgeStyle=orthogonalEdgeStyle;rounded=0;orthogonalLoop=1;jettySize=auto;html=1;exitX=1;exitY=0;exitDx=0;exitDy=0;entryX=0.5;entryY=1;entryDx=0;entryDy=0;entryPerimeter=0;" edge="1" parent="1" target="ahCMLixp_YzIX2k5nNPd-76">
          <mxGeometry relative="1" as="geometry">
            <mxPoint x="125" y="910" as="sourcePoint" />
          </mxGeometry>
        </mxCell>
        <mxCell id="ahCMLixp_YzIX2k5nNPd-80" value="FIN" style="rounded=1;whiteSpace=wrap;html=1;arcSize=50;" vertex="1" parent="1">
          <mxGeometry x="200" y="870" width="120" height="30" as="geometry" />
        </mxCell>
      </root>
    </mxGraphModel>
  </diagram>
</mxfile>
